<?xml version="1.0" encoding="utf-8"?>
<!-- Generator: Adobe Illustrator 26.0.3, SVG Export Plug-In . SVG Version: 6.00 Build 0)  -->
<svg version="1.1" id="Camada_1" xmlns="http://www.w3.org/2000/svg" xmlns:xlink="http://www.w3.org/1999/xlink" x="0px" y="0px"
	 viewBox="0 0 512 512" style="enable-background:new 0 0 512 512;" xml:space="preserve">
<style type="text/css">
	.st0{fill:#16A085;}
</style>
<path class="st0" d="M119.4,44.1c23.3-3.9,46.8-1.9,67.7,5.3l50.7,77.5l-75.5,75.4c-1.5,1.6-3.2,2.8-2.3,5.9c0,2.1,0.1,4.2,2.6,5.7
	l112,104c2.9,2.7,6.5,2.8,10.5,0.3c3.1-2.6,3.8-7,1.7-10.4l-60.4-98.1l90.7-75.6c2.6-3,3.6-5.6,2.4-8.8l-22.7-63.6
	c28.6-16.7,62.4-23.2,95.8-17.6c68.9,11.5,119.4,71.1,119.4,141v5.8c0,41.5-17.2,81.2-47.6,109.5L283.7,469.1
	c-7.5,7-17.4,10.9-27.7,10.9c-10.3,0-20.2-3.9-27.7-10.9L47.6,300.4C17.2,272.1,0,232.4,0,190.9v-5.8C0,115.2,50.5,55.6,119.4,44.1
	L119.4,44.1z"/>
</svg>
